<svg width="25" height="25" viewBox="0 0 25 25" fill="none" xmlns="http://www.w3.org/2000/svg">
<path d="M12.0065 4.27052L12.1083 4.26367C12.488 4.26367 12.8018 4.54582 12.8514 4.9119L12.8583 5.01367L12.8574 17.7097L16.0768 14.4885C16.343 14.2222 16.7597 14.1978 17.0534 14.4155L17.1375 14.4881C17.4039 14.7542 17.4283 15.1709 17.2105 15.4646L17.138 15.5488L12.6417 20.0488C12.3756 20.3151 11.9589 20.3395 11.6652 20.1218L11.5811 20.0492L7.07731 15.5492C6.7843 15.2564 6.7841 14.7816 7.07687 14.4885C7.34302 14.2222 7.75968 14.1978 8.05338 14.4155L8.13753 14.4881L11.3574 17.7057L11.3583 5.01367C11.3583 4.63397 11.6404 4.32018 12.0065 4.27052Z" fill="#657372"/>
</svg>
