<svg width="30" height="30" viewBox="0 0 30 30" fill="none" xmlns="http://www.w3.org/2000/svg">
<path d="M15.6195 3.75C20.4113 3.75 24.3238 7.43525 24.4884 12.112L24.4933 12.4015V17.1275L26.1261 20.7681C26.2079 20.9502 26.25 21.1469 26.25 21.3458C26.25 22.142 25.5879 22.7877 24.771 22.7877L19.1691 22.7894C19.1691 24.7006 17.5799 26.25 15.6195 26.25C13.7292 26.25 12.184 24.8092 12.076 22.9927L12.0695 22.7868L6.47935 22.7877C6.27663 22.7877 6.07607 22.747 5.89012 22.6683C5.14093 22.3509 4.7974 21.5017 5.12282 20.7713L6.74572 17.1286V12.4014C6.74643 7.60869 10.7118 3.75 15.6195 3.75ZM17.3938 22.7868L13.8448 22.7894C13.8448 23.745 14.6394 24.5197 15.6195 24.5197C16.542 24.5197 17.3002 23.8335 17.3861 22.956L17.3938 22.7868ZM15.6195 5.4803C11.6912 5.4803 8.52105 8.56514 8.52048 12.4015V17.4881L6.93032 21.0574H24.3188L22.7186 17.4893L22.7187 12.4163L22.7143 12.1565C22.5829 8.42663 19.4549 5.4803 15.6195 5.4803Z" fill="#657372"/>
</svg>
