<svg width="30" height="30" viewBox="0 0 30 30" fill="none" xmlns="http://www.w3.org/2000/svg">
<path d="M7.8125 3.75H22.1875C24.3538 3.75 26.124 5.44556 26.2436 7.58197L26.25 7.8125V22.1875C26.25 24.3538 24.5544 26.124 22.418 26.2436L22.1875 26.25H7.8125C5.64621 26.25 3.87594 24.5544 3.75643 22.418L3.75 22.1875V7.8125C3.75 5.64621 5.44556 3.87594 7.58197 3.75643L7.8125 3.75ZM5.625 18.125V22.1875C5.625 23.3353 6.50889 24.2765 7.63309 24.3678L7.8125 24.375H22.1875C23.3353 24.375 24.2765 23.4911 24.3678 22.3669L24.375 22.1875V18.125H19.5938C19.1755 20.1854 17.4059 21.755 15.2504 21.8684L15 21.875C12.8162 21.875 10.9812 20.3816 10.4605 18.3605L10.4063 18.125H5.625ZM22.1875 5.625H7.8125C6.66479 5.625 5.72351 6.50889 5.63225 7.63309L5.625 7.8125V16.25H11.25C11.7246 16.25 12.1169 16.6027 12.1789 17.0603L12.1875 17.1875C12.1875 18.7408 13.4467 20 15 20C16.4886 20 17.707 18.8435 17.806 17.38L17.8125 17.1875C17.8125 16.7129 18.1652 16.3206 18.6228 16.2585L18.75 16.25H24.375V7.8125C24.375 6.66479 23.4911 5.72351 22.3669 5.63225L22.1875 5.625Z" fill="#657372"/>
</svg>
