<svg width="26" height="26" viewBox="0 0 26 26" fill="none" xmlns="http://www.w3.org/2000/svg">
<path d="M13 0.5C19.9035 0.5 25.5 6.09644 25.5 13C25.5 19.9035 19.9035 25.5 13 25.5C10.9771 25.5 9.02227 25.0183 7.26608 24.11L2.4838 25.4441C1.65265 25.6762 0.790725 25.1906 0.558638 24.3595C0.481825 24.0845 0.481863 23.7936 0.558688 23.5189L1.89326 18.7402C0.982962 16.9825 0.5 15.0254 0.5 13C0.5 6.09644 6.09644 0.5 13 0.5ZM13 2.375C7.13198 2.375 2.375 7.13198 2.375 13C2.375 14.837 2.84096 16.6043 3.71629 18.1719L3.9046 18.509L2.5137 23.4893L7.49694 22.099L7.83386 22.2869C9.40007 23.1601 11.1652 23.625 13 23.625C18.868 23.625 23.625 18.868 23.625 13C23.625 7.13198 18.868 2.375 13 2.375ZM8.9375 14.25H14.5604C15.0781 14.25 15.4979 14.6698 15.4979 15.1875C15.4979 15.6621 15.1451 16.0544 14.6875 16.1165L14.5604 16.125H8.9375C8.41974 16.125 8 15.7052 8 15.1875C8 14.7129 8.35269 14.3206 8.81029 14.2585L8.9375 14.25H14.5604H8.9375ZM8.9375 9.875H17.0681C17.5859 9.875 18.0056 10.2947 18.0056 10.8125C18.0056 11.2871 17.6529 11.6794 17.1954 11.7415L17.0681 11.75H8.9375C8.41974 11.75 8 11.3302 8 10.8125C8 10.3379 8.35269 9.94564 8.81029 9.88356L8.9375 9.875H17.0681H8.9375Z" fill="#657372"/>
</svg>
