<svg width="25" height="25" viewBox="0 0 25 25" fill="none" xmlns="http://www.w3.org/2000/svg">
<path d="M10.3574 5.26367H14.3574C14.3574 4.1591 13.462 3.26367 12.3574 3.26367C11.2528 3.26367 10.3574 4.1591 10.3574 5.26367ZM8.85742 5.26367C8.85742 3.33067 10.4244 1.76367 12.3574 1.76367C14.2904 1.76367 15.8574 3.33067 15.8574 5.26367H21.6074C22.0216 5.26367 22.3574 5.59946 22.3574 6.01367C22.3574 6.42788 22.0216 6.76367 21.6074 6.76367H20.2883L19.1163 18.8749C18.9303 20.7971 17.3149 22.2637 15.3837 22.2637H9.33111C7.39996 22.2637 5.78457 20.7971 5.59855 18.8749L4.4265 6.76367H3.10742C2.69321 6.76367 2.35742 6.42788 2.35742 6.01367C2.35742 5.59946 2.69321 5.26367 3.10742 5.26367H8.85742ZM10.8574 10.0137C10.8574 9.59946 10.5216 9.26367 10.1074 9.26367C9.69321 9.26367 9.35742 9.59946 9.35742 10.0137V17.5137C9.35742 17.9279 9.69321 18.2637 10.1074 18.2637C10.5216 18.2637 10.8574 17.9279 10.8574 17.5137V10.0137ZM14.6074 9.26367C15.0216 9.26367 15.3574 9.59946 15.3574 10.0137V17.5137C15.3574 17.9279 15.0216 18.2637 14.6074 18.2637C14.1932 18.2637 13.8574 17.9279 13.8574 17.5137V10.0137C13.8574 9.59946 14.1932 9.26367 14.6074 9.26367ZM7.09158 18.7304C7.20319 19.8837 8.17242 20.7637 9.33111 20.7637H15.3837C16.5424 20.7637 17.5116 19.8837 17.6232 18.7304L18.7813 6.76367H5.9335L7.09158 18.7304Z" fill="#657372"/>
</svg>
