<svg width="30" height="30" viewBox="0 0 30 30" fill="none" xmlns="http://www.w3.org/2000/svg">
<path d="M15 2.5C21.9037 2.5 27.5 8.0975 27.5 15C27.5 21.9025 21.9037 27.5 15 27.5C8.09625 27.5 2.5 21.9025 2.5 15C2.5 8.0975 8.09625 2.5 15 2.5ZM15 4.58375C9.25625 4.58375 4.58375 9.25625 4.58375 15C4.58375 20.7437 9.25625 25.4163 15 25.4163C20.7437 25.4163 25.4163 20.7437 25.4163 15C25.4163 9.25625 20.7437 4.58375 15 4.58375ZM15 19.375C15.6904 19.375 16.25 19.9346 16.25 20.625C16.25 21.3154 15.6904 21.875 15 21.875C14.3096 21.875 13.75 21.3154 13.75 20.625C13.75 19.9346 14.3096 19.375 15 19.375ZM15 8.4375C16.8985 8.4375 18.4375 9.97652 18.4375 11.875C18.4375 13.1385 18.0656 13.8425 17.1236 14.8232L16.9129 15.0379C16.1355 15.8153 15.9375 16.1454 15.9375 16.875C15.9375 17.3927 15.5177 17.8125 15 17.8125C14.4823 17.8125 14.0625 17.3927 14.0625 16.875C14.0625 15.6115 14.4344 14.9075 15.3764 13.9268L15.5871 13.7121C16.3645 12.9347 16.5625 12.6046 16.5625 11.875C16.5625 11.012 15.863 10.3125 15 10.3125C14.191 10.3125 13.5256 10.9273 13.4456 11.7152L13.4375 11.875C13.4375 12.3928 13.0177 12.8125 12.5 12.8125C11.9822 12.8125 11.5625 12.3928 11.5625 11.875C11.5625 9.97652 13.1015 8.4375 15 8.4375Z" fill="#657372"/>
</svg>
