<svg width="25" height="25" viewBox="0 0 25 25" fill="none" xmlns="http://www.w3.org/2000/svg">
<path d="M2.57709 2.48334C2.31082 2.74961 2.28662 3.16627 2.50447 3.45988L2.57709 3.544L6.61166 7.57857C4.68967 8.92804 3.25319 10.9436 2.6563 13.3281C2.55572 13.7299 2.79992 14.1372 3.20173 14.2378C3.60355 14.3383 4.01082 14.0942 4.11141 13.6923C4.64088 11.5772 5.94854 9.80314 7.69158 8.65819L9.50121 10.468C8.7937 11.1895 8.35742 12.178 8.35742 13.2683C8.35742 15.4775 10.1483 17.2683 12.3574 17.2683C13.4478 17.2683 14.4362 16.832 15.1578 16.1245L21.0771 22.044C21.37 22.3369 21.8448 22.3369 22.1377 22.044C22.404 21.7778 22.4282 21.3611 22.2103 21.0675L22.1377 20.9834L16.0242 14.8692L16.0254 14.8677L14.8253 13.6698L11.9554 10.8005L11.9574 10.7997L9.07619 7.92149L9.07742 7.91967L7.94414 6.78916L3.63775 2.48334C3.34486 2.19045 2.86998 2.19045 2.57709 2.48334ZM10.5615 11.5292L14.0966 15.0643C13.6466 15.5001 13.0333 15.7683 12.3574 15.7683C10.9767 15.7683 9.85742 14.649 9.85742 13.2683C9.85742 12.5924 10.1257 11.9791 10.5615 11.5292ZM12.3574 5.76367C11.3571 5.76367 10.3865 5.91174 9.46851 6.18867L10.7055 7.42486C11.2413 7.31899 11.7938 7.26367 12.3574 7.26367C16.2805 7.26367 19.6673 9.94393 20.6045 13.6969C20.7049 14.0987 21.112 14.3431 21.5139 14.2428C21.9158 14.1424 22.1602 13.7353 22.0598 13.3334C20.9568 8.91639 16.9729 5.76367 12.3574 5.76367ZM12.5521 9.27295L16.3534 13.0737C16.2516 11.0168 14.6046 9.37131 12.5521 9.27295Z" fill="#657372"/>
</svg>
