<svg width="30" height="30" viewBox="0 0 30 30" fill="none" xmlns="http://www.w3.org/2000/svg">
<path d="M2.125 7.1875C2.125 6.66974 2.54474 6.25 3.0625 6.25H26.5625C27.0802 6.25 27.5 6.66974 27.5 7.1875C27.5 7.70526 27.0802 8.125 26.5625 8.125H3.0625C2.54474 8.125 2.125 7.70526 2.125 7.1875ZM3.0625 23.4375C3.0625 22.9198 3.48224 22.5 4 22.5H26C26.5177 22.5 26.9375 22.9198 26.9375 23.4375C26.9375 23.9552 26.5177 24.375 26 24.375H4C3.48224 24.375 3.0625 23.9552 3.0625 23.4375ZM3.4375 14.375C2.91974 14.375 2.5 14.7948 2.5 15.3125C2.5 15.8302 2.91974 16.25 3.4375 16.25H26.5625C27.0802 16.25 27.5 15.8302 27.5 15.3125C27.5 14.7948 27.0802 14.375 26.5625 14.375H3.4375Z" fill="#657372"/>
</svg>
