<svg width="23" height="24" viewBox="0 0 23 24" fill="none" xmlns="http://www.w3.org/2000/svg">
<path d="M20.8055 24H5.86829C4.78454 24 3.90234 23.1178 3.90234 22.0341V17.0784C3.90234 16.8713 4.07016 16.7034 4.27734 16.7034H16.897C17.1642 16.7034 17.3808 16.4859 17.3808 16.2188V10.0144C17.3808 9.74719 17.1642 9.53063 16.897 9.53063H4.27734C4.07016 9.53063 3.90234 9.36281 3.90234 9.15563V1.96594C3.90234 0.882188 4.78454 0 5.86829 0H16.6411C16.8483 0 17.0161 0.167812 17.0161 0.375V5.15906C17.0161 5.48812 17.2833 5.75531 17.6123 5.75531H22.3964C22.6036 5.75531 22.7714 5.92312 22.7714 6.13031V22.0341C22.7723 23.1178 21.8902 24 20.8055 24ZM4.65328 17.4534V22.0341C4.65328 22.7044 5.19892 23.25 5.86923 23.25H20.8064C21.4767 23.25 22.0223 22.7044 22.0223 22.0341V6.50531H17.6133C16.8708 6.50531 16.267 5.90156 16.267 5.15906V0.75H5.86923C5.19892 0.75 4.65328 1.29563 4.65328 1.96594V8.78063H16.898C17.5786 8.78063 18.1317 9.33375 18.1317 10.0144V16.2188C18.1317 16.8994 17.5786 17.4534 16.898 17.4534H4.65328Z" fill="#233735"/>
<path d="M16.9022 17.4563H1.23375C0.553128 17.4563 0 16.9022 0 16.2216V10.0172C0 9.33656 0.553128 8.78344 1.23375 8.78344H16.9022C17.5828 8.78344 18.1359 9.33656 18.1359 10.0172V16.2216C18.1369 16.9022 17.5828 17.4563 16.9022 17.4563ZM1.23468 9.53344C0.967493 9.53344 0.750938 9.75 0.750938 10.0172V16.2216C0.750938 16.4888 0.967493 16.7063 1.23468 16.7063H16.9031C17.1703 16.7063 17.3869 16.4888 17.3869 16.2216V10.0172C17.3869 9.75 17.1703 9.53344 16.9031 9.53344H1.23468Z" fill="#233735"/>
<path d="M22.4076 6.50583C22.4066 6.50583 22.4066 6.50583 22.4057 6.50583H17.6216C16.8791 6.50583 16.2754 5.90208 16.2754 5.15958V0.375522C16.2754 0.223647 16.3663 0.0867718 16.507 0.0286468C16.6466 -0.0294782 16.8088 0.00239635 16.9157 0.110209L22.6495 5.84396C22.731 5.9124 22.7826 6.01552 22.7826 6.13083C22.7826 6.33802 22.6138 6.50583 22.4076 6.50583ZM17.0245 1.28115V5.15958C17.0245 5.48865 17.2916 5.75583 17.6207 5.75583H21.4991L17.0245 1.28115Z" fill="#233735"/>
<path d="M3.15 15.5172C2.85656 15.5172 2.625 15.2922 2.625 15.0297C2.625 14.7672 2.85656 14.5479 3.15 14.5479C3.43125 14.5479 3.66938 14.7663 3.66938 15.0297C3.66938 15.2922 3.43125 15.5172 3.15 15.5172Z" fill="#233735"/>
<path d="M5.57875 13.9599V15.1046C5.57875 15.324 5.37906 15.5171 5.14093 15.5171C4.90937 15.5171 4.70312 15.3296 4.70312 15.1046V11.5027C4.70312 11.259 4.92812 11.0527 5.19062 11.0527H6.10937C7.285 11.0527 7.70406 11.753 7.70406 12.5162C7.70406 13.4415 7.07875 13.9609 6.10937 13.9609H5.57875V13.9599ZM5.57875 13.1659H6.11031C6.57906 13.1659 6.82937 12.9596 6.82937 12.5096C6.82937 12.1843 6.69813 11.8468 6.11031 11.8468H5.57875V13.1659Z" fill="#233735"/>
<path d="M9.77062 15.4615H9.06375C8.80125 15.4615 8.57625 15.2553 8.57625 15.0115V11.4978C8.57625 11.254 8.80125 11.0478 9.06375 11.0478H9.77062C11.1834 11.0478 11.6719 11.8231 11.6719 12.6922V13.7675C11.6709 14.6487 11.19 15.4615 9.77062 15.4615ZM10.7953 12.6912C10.7953 12.2159 10.5516 11.8409 9.87656 11.8409H9.45093V14.6675H9.87656C10.5647 14.6675 10.7953 14.2606 10.7953 13.7675V12.6912Z" fill="#233735"/>
<path d="M13.4794 15.1165C13.4794 15.3293 13.2797 15.5168 13.0416 15.5168C12.7978 15.5168 12.6038 15.3293 12.6038 15.1165V11.4903C12.6038 11.2718 12.81 11.0459 13.0856 11.0459H14.7797C15.0169 11.0459 15.2175 11.2334 15.2175 11.4518C15.2175 11.6768 15.0178 11.839 14.7797 11.839H13.4794V12.8515H14.6616C14.88 12.8515 15.0928 13.0203 15.0928 13.2453C15.0928 13.4703 14.9053 13.6456 14.6616 13.6456H13.4794V15.1165Z" fill="#233735"/>
</svg>
