<svg width="23" height="23" viewBox="0 0 23 23" fill="none" xmlns="http://www.w3.org/2000/svg">
<path d="M9.50195 0.4375C14.5071 0.4375 18.5645 4.49493 18.5645 9.5C18.5645 11.6649 17.8053 13.6524 16.5388 15.211L22.6648 21.3371C23.031 21.7032 23.031 22.2967 22.6648 22.6629C22.3321 22.9958 21.8112 23.026 21.4442 22.7536L21.3391 22.6629L15.213 16.5369C13.6543 17.8034 11.6668 18.5625 9.50195 18.5625C4.49688 18.5625 0.439453 14.5051 0.439453 9.5C0.439453 4.49493 4.49688 0.4375 9.50195 0.4375ZM9.50195 2.3125C5.5324 2.3125 2.31445 5.53045 2.31445 9.5C2.31445 13.4695 5.5324 16.6875 9.50195 16.6875C13.4715 16.6875 16.6895 13.4695 16.6895 9.5C16.6895 5.53045 13.4715 2.3125 9.50195 2.3125Z" fill="#657372"/>
</svg>
