<svg width="30" height="30" viewBox="0 0 30 30" fill="none" xmlns="http://www.w3.org/2000/svg">
<path d="M21.25 3.12305C23.6675 3.12305 25.6273 5.08278 25.6273 7.50026C25.6273 9.91772 23.6675 11.8775 21.25 11.8775C19.9625 11.8775 18.8049 11.3216 18.004 10.4368L12.3057 13.6924C12.4348 14.1054 12.5044 14.5447 12.5044 15.0002C12.5044 15.4559 12.4348 15.8951 12.3057 16.3081L18.0029 19.565C18.8038 18.6794 19.9619 18.123 21.25 18.123C23.6675 18.123 25.6273 20.0827 25.6273 22.5002C25.6273 24.9177 23.6675 26.8775 21.25 26.8775C18.8325 26.8775 16.8728 24.9177 16.8728 22.5002C16.8728 22.0447 16.9424 21.6054 17.0715 21.1924L11.3744 17.9356C10.5734 18.8211 9.41529 19.3775 8.12721 19.3775C5.70975 19.3775 3.75 17.4177 3.75 15.0002C3.75 12.5827 5.70975 10.623 8.12721 10.623C9.41466 10.623 10.5723 11.1789 11.3732 12.0637L17.0715 8.80813C16.9424 8.39512 16.8728 7.95582 16.8728 7.50026C16.8728 5.08278 18.8325 3.12305 21.25 3.12305ZM21.25 19.998C19.8681 19.998 18.7478 21.1184 18.7478 22.5002C18.7478 23.8822 19.8681 25.0025 21.25 25.0025C22.6319 25.0025 23.7523 23.8822 23.7523 22.5002C23.7523 21.1184 22.6319 19.998 21.25 19.998ZM8.12721 12.498C6.74528 12.498 5.625 13.6184 5.625 15.0002C5.625 16.3822 6.74528 17.5025 8.12721 17.5025C9.50914 17.5025 10.6294 16.3822 10.6294 15.0002C10.6294 13.6184 9.50914 12.498 8.12721 12.498ZM21.25 4.99805C19.8681 4.99805 18.7478 6.11832 18.7478 7.50026C18.7478 8.88218 19.8681 10.0025 21.25 10.0025C22.6319 10.0025 23.7523 8.88218 23.7523 7.50026C23.7523 6.11832 22.6319 4.99805 21.25 4.99805Z" fill="#657372"/>
</svg>
